<svg xmlns="http://www.w3.org/2000/svg" fill="none" viewBox="0 0 470 298" height="298" width="470">
<path fill="#246889" d="M0 113.309C0 121.471 6.67313 128.088 14.9049 128.088L407.885 127.876C413.273 138.519 424.381 145.824 437.209 145.824C455.319 145.824 470 131.266 470 113.309C470 95.3516 455.319 80.7943 437.209 80.7943C424.553 80.7943 413.571 87.9047 408.105 98.3168L14.9049 98.5296C6.67313 98.5296 0 105.147 0 113.309Z"></path>
<path fill="#54AFF5" d="M276.237 60.1031C276.237 43.234 290.028 29.5589 307.04 29.5589C324.052 29.5589 337.844 43.234 337.844 60.1031L337.99 158.478C337.99 195.246 339.909 203.608 346.736 210.159C351.509 214.74 360.658 219.332 364.965 219.309C370.862 219.278 376.739 215.494 378.649 210.499C380.156 206.555 378.905 202.782 374.321 197.46C367.547 189.594 367.776 190.959 367.776 158.478L367.653 60.1031C367.653 26.9091 340.516 0 307.04 0C273.564 0 246.427 26.9091 246.427 60.1031V90.8935H276.237V60.1031ZM364.672 202.971C366.867 202.971 368.647 201.206 368.647 199.03C368.647 196.853 366.867 195.089 364.672 195.089C362.477 195.089 360.698 196.853 360.698 199.03C360.698 201.206 362.477 202.971 364.672 202.971Z" clip-rule="evenodd" fill-rule="evenodd"></path>
<path fill="#54AFF5" d="M246.427 166.515C246.427 183.384 232.636 197.059 215.624 197.059C198.611 197.059 184.82 183.384 184.82 166.515V60.1031C184.82 26.9091 157.683 0 124.207 0C90.7315 0 63.5941 26.9091 63.5941 60.1031L63.4877 90.8935H93.2975L93.4038 60.1031C93.4038 43.234 107.195 29.5589 124.207 29.5589C141.219 29.5589 155.011 43.234 155.011 60.1031V166.515C155.011 199.709 182.148 226.618 215.624 226.618C249.099 226.618 276.237 199.709 276.237 166.515V135.725H246.427V166.515Z"></path>
<path fill="#54AFF5" d="M92.907 203.956C92.907 212.119 86.2338 218.736 78.0021 218.736C69.7704 218.736 63.0973 212.119 63.0973 203.956L63.3329 135.725H93.1426L92.907 203.956Z"></path>
<path fill="white" d="M368.647 199.03C368.647 201.206 366.867 202.971 364.672 202.971C362.477 202.971 360.698 201.206 360.698 199.03C360.698 196.853 362.477 195.089 364.672 195.089C366.867 195.089 368.647 196.853 368.647 199.03Z"></path>
<path fill="#54AFF5" d="M36.2803 284.374L24.5217 250.558H24.2704C24.3262 251.315 24.3914 252.349 24.4659 253.66C24.5404 254.971 24.6055 256.374 24.6614 257.87C24.7173 259.365 24.7452 260.796 24.7452 262.163V284.374H18.6564V243.884H28.0689L39.3805 276.204H39.5481L51.2508 243.884H60.6353V284.374H54.2393V261.83C54.2393 260.593 54.2579 259.255 54.2951 257.815C54.351 256.374 54.4069 255.008 54.4627 253.716C54.5372 252.423 54.5931 251.389 54.6303 250.614H54.4069L42.2015 284.374H36.2803Z"></path>
<path fill="#54AFF5" d="M83.0351 253.134C85.7909 253.134 88.1556 253.697 90.1294 254.824C92.1031 255.95 93.6206 257.547 94.682 259.615C95.7433 261.683 96.274 264.157 96.274 267.037V270.527H75.6337C75.7082 273.499 76.5088 275.789 78.0357 277.395C79.5811 279.001 81.741 279.804 84.5154 279.804C86.4891 279.804 88.258 279.62 89.8221 279.25C91.4048 278.863 93.0341 278.3 94.7099 277.561V282.851C93.1644 283.571 91.591 284.097 89.9897 284.429C88.3884 284.762 86.4705 284.928 84.2361 284.928C81.2011 284.928 78.5291 284.346 76.2202 283.183C73.93 282.002 72.1331 280.248 70.8297 277.921C69.5449 275.595 68.9025 272.705 68.9025 269.253C68.9025 265.818 69.4891 262.901 70.6621 260.501C71.8352 258.101 73.4831 256.273 75.6058 255.017C77.7284 253.762 80.2049 253.134 83.0351 253.134ZM83.0351 258.036C80.9683 258.036 79.2925 258.701 78.0077 260.03C76.7416 261.36 75.9968 263.307 75.7733 265.874H89.8501C89.8314 264.341 89.5708 262.984 89.068 261.803C88.5839 260.621 87.8391 259.698 86.8336 259.033C85.8468 258.368 84.5806 258.036 83.0351 258.036Z"></path>
<path fill="#54AFF5" d="M119.344 253.134C119.866 253.134 120.433 253.162 121.048 253.217C121.662 253.273 122.193 253.346 122.64 253.439L122.025 259.532C121.634 259.421 121.15 259.338 120.573 259.282C120.014 259.227 119.512 259.199 119.065 259.199C117.892 259.199 116.775 259.393 115.713 259.781C114.652 260.15 113.712 260.723 112.892 261.498C112.073 262.255 111.431 263.206 110.965 264.351C110.5 265.495 110.267 266.825 110.267 268.339V284.374H103.675V253.716H108.815L109.708 259.116H110.016C110.63 258.027 111.393 257.03 112.306 256.125C113.218 255.22 114.261 254.5 115.434 253.965C116.626 253.411 117.929 253.134 119.344 253.134Z"></path>
<path fill="#54AFF5" d="M140.822 284.928C137.899 284.928 135.367 284.365 133.225 283.239C131.084 282.112 129.436 280.386 128.282 278.06C127.127 275.733 126.55 272.779 126.55 269.197C126.55 265.468 127.183 262.421 128.449 260.058C129.716 257.695 131.466 255.95 133.7 254.824C135.953 253.697 138.532 253.134 141.437 253.134C143.28 253.134 144.947 253.319 146.436 253.688C147.945 254.039 149.22 254.473 150.263 254.99L148.308 260.196C147.172 259.735 146.008 259.347 144.816 259.033C143.625 258.719 142.48 258.562 141.381 258.562C139.575 258.562 138.067 258.959 136.856 259.753C135.665 260.547 134.771 261.729 134.175 263.298C133.598 264.868 133.309 266.815 133.309 269.142C133.309 271.394 133.607 273.296 134.203 274.847C134.799 276.379 135.683 277.543 136.856 278.337C138.029 279.112 139.472 279.5 141.185 279.5C142.88 279.5 144.397 279.297 145.738 278.89C147.079 278.484 148.345 277.958 149.537 277.312V282.962C148.363 283.626 147.107 284.116 145.766 284.429C144.425 284.762 142.777 284.928 140.822 284.928Z"></path>
<path fill="#54AFF5" d="M183.751 253.716V284.374H178.584L177.69 280.247H177.327C176.675 281.3 175.847 282.177 174.841 282.879C173.836 283.562 172.718 284.069 171.49 284.402C170.261 284.753 168.966 284.928 167.607 284.928C165.28 284.928 163.287 284.54 161.63 283.765C159.992 282.971 158.735 281.752 157.86 280.109C156.985 278.466 156.547 276.343 156.547 273.739V253.716H163.138V272.521C163.138 274.902 163.623 276.684 164.591 277.866C165.578 279.047 167.104 279.638 169.171 279.638C171.164 279.638 172.746 279.232 173.919 278.42C175.092 277.607 175.921 276.407 176.405 274.819C176.908 273.231 177.159 271.284 177.159 268.976V253.716H183.751Z"></path>
<path fill="#54AFF5" d="M208.832 253.134C209.353 253.134 209.921 253.162 210.536 253.217C211.15 253.273 211.681 253.346 212.128 253.439L211.513 259.532C211.122 259.421 210.638 259.338 210.061 259.282C209.502 259.227 209 259.199 208.553 259.199C207.38 259.199 206.262 259.393 205.201 259.781C204.14 260.15 203.199 260.723 202.38 261.498C201.561 262.255 200.918 263.206 200.453 264.351C199.987 265.495 199.755 266.825 199.755 268.339V284.374H193.163V253.716H198.302L199.196 259.116H199.503C200.118 258.027 200.881 257.03 201.794 256.125C202.706 255.22 203.749 254.5 204.922 253.965C206.113 253.411 207.417 253.134 208.832 253.134Z"></path>
<path fill="#54AFF5" d="M213.189 253.716H220.339L226.679 271.219C226.959 272.013 227.21 272.798 227.433 273.573C227.675 274.33 227.88 275.078 228.048 275.816C228.234 276.555 228.383 277.293 228.495 278.032H228.662C228.848 277.072 229.109 276.001 229.444 274.819C229.798 273.619 230.189 272.419 230.617 271.219L236.706 253.716H243.772L230.506 288.584C229.742 290.578 228.802 292.276 227.685 293.68C226.586 295.101 225.283 296.172 223.775 296.892C222.266 297.631 220.544 298 218.607 298C217.676 298 216.866 297.945 216.178 297.834C215.489 297.742 214.902 297.64 214.418 297.529V292.323C214.809 292.415 215.302 292.498 215.898 292.572C216.494 292.646 217.109 292.683 217.742 292.683C218.915 292.683 219.929 292.452 220.786 291.99C221.643 291.529 222.369 290.873 222.965 290.024C223.56 289.193 224.054 288.242 224.445 287.171L225.534 284.291L213.189 253.716Z"></path>
<path fill="#246889" d="M288.172 287.699L282.786 273.931H265.25L259.893 287.699H254.746L271.863 244.139H276.442L293.439 287.699H288.172ZM281.26 269.45L276.142 255.771C276.023 255.415 275.823 254.831 275.544 254.02C275.285 253.209 275.015 252.369 274.736 251.498C274.457 250.628 274.227 249.925 274.048 249.391C273.848 250.202 273.629 251.013 273.389 251.825C273.17 252.616 272.95 253.358 272.731 254.05C272.512 254.723 272.322 255.296 272.162 255.771L266.955 269.45H281.26Z"></path>
<path fill="#246889" d="M304.376 287.699H299.379V241.528H304.376V287.699Z"></path>
<path fill="#246889" d="M328.121 254.584C330.914 254.584 333.308 255.197 335.303 256.424C337.298 257.65 338.824 259.371 339.882 261.587C340.939 263.783 341.468 266.355 341.468 269.302V272.358H318.814C318.874 276.176 319.832 279.084 321.687 281.082C323.542 283.08 326.156 284.079 329.527 284.079C331.602 284.079 333.438 283.891 335.034 283.516C336.63 283.14 338.286 282.586 340.001 281.854V286.186C338.345 286.918 336.7 287.452 335.064 287.788C333.448 288.125 331.532 288.293 329.318 288.293C326.166 288.293 323.413 287.66 321.059 286.394C318.725 285.108 316.909 283.229 315.612 280.756C314.316 278.283 313.667 275.256 313.667 271.676C313.667 268.174 314.256 265.148 315.433 262.596C316.63 260.024 318.306 258.046 320.46 256.661C322.635 255.277 325.188 254.584 328.121 254.584ZM328.061 258.62C325.408 258.62 323.293 259.48 321.717 261.201C320.141 262.922 319.203 265.326 318.904 268.412H336.261C336.241 266.473 335.931 264.772 335.333 263.308C334.754 261.824 333.867 260.677 332.67 259.866C331.473 259.035 329.936 258.62 328.061 258.62Z"></path>
<path fill="#246889" d="M365.422 254.584C366.08 254.584 366.769 254.624 367.487 254.703C368.205 254.762 368.843 254.851 369.402 254.97L368.774 259.54C368.235 259.401 367.636 259.292 366.978 259.213C366.32 259.134 365.701 259.094 365.123 259.094C363.806 259.094 362.559 259.362 361.382 259.896C360.225 260.41 359.208 261.162 358.33 262.151C357.452 263.12 356.764 264.297 356.265 265.682C355.766 267.047 355.517 268.57 355.517 270.252V287.699H350.519V255.178H354.649L355.188 261.172H355.397C356.075 259.965 356.893 258.867 357.851 257.878C358.809 256.869 359.916 256.068 361.173 255.474C362.449 254.881 363.866 254.584 365.422 254.584Z"></path>
<path fill="#246889" d="M386.803 284.257C387.621 284.257 388.459 284.188 389.316 284.05C390.174 283.911 390.873 283.743 391.411 283.545V287.373C390.833 287.63 390.025 287.848 388.987 288.026C387.97 288.204 386.972 288.293 385.995 288.293C384.259 288.293 382.683 287.996 381.267 287.403C379.85 286.789 378.713 285.761 377.855 284.317C377.017 282.873 376.598 280.875 376.598 278.323V259.035H371.93V256.632L376.628 254.703L378.603 247.641H381.596V255.178H391.202V259.035H381.596V278.174C381.596 280.212 382.065 281.735 383.002 282.744C383.96 283.753 385.227 284.257 386.803 284.257Z"></path>
<path fill="#54AFF5" d="M438.796 288.584L433.41 274.815H415.874L410.517 288.584H405.37L422.487 245.023H427.066L444.063 288.584H438.796ZM431.883 270.335L426.766 256.655C426.647 256.299 426.447 255.716 426.168 254.905C425.908 254.094 425.639 253.253 425.36 252.382C425.081 251.512 424.851 250.81 424.672 250.276C424.472 251.087 424.253 251.898 424.013 252.709C423.794 253.5 423.574 254.242 423.355 254.934C423.135 255.607 422.946 256.181 422.786 256.655L417.579 270.335H431.883Z"></path>
<path fill="#54AFF5" d="M455 288.584H450.002V245.023H455V288.584Z"></path>
</svg>
